<?xml version="1.0" encoding="utf-8"?>
<!-- Generator: Adobe Illustrator 23.1.1, SVG Export Plug-In . SVG Version: 6.00 Build 0)  -->
<svg version="1.1" id="Layer_1" xmlns="http://www.w3.org/2000/svg" xmlns:xlink="http://www.w3.org/1999/xlink" x="0px" y="0px"
	 viewBox="0 0 502.4 523.8" style="enable-background:new 0 0 502.4 523.8;" xml:space="preserve">
<style type="text/css">
	.st0{fill:#231F20;}
	.st1{fill:none;stroke:#231F20;stroke-width:7;stroke-miterlimit:10;}
</style>
<title>Layer 2</title>
<g>
	<g id="Layer_2-2">
		<circle class="st0" cx="223.5" cy="495" r="28.8"/>
		<circle class="st0" cx="197.6" cy="382.1" r="19.4"/>
		
			<ellipse transform="matrix(4.531439e-02 -0.999 0.999 4.531439e-02 -178.3471 322.2195)" class="st0" cx="79.4" cy="254.4" rx="19.4" ry="19.4"/>
		<circle class="st0" cx="98.8" cy="348.5" r="19.4"/>
		<circle class="st0" cx="19.4" cy="182.1" r="19.4"/>
		<circle class="st0" cx="66.5" cy="126.8" r="19.4"/>
		<circle class="st0" cx="186.5" cy="201.5" r="19.4"/>
		<circle class="st0" cx="279.4" cy="309.7" r="19.4"/>
		<circle class="st0" cx="444.1" cy="201.5" r="19.4"/>
		<circle class="st0" cx="482.9" cy="39.7" r="19.4"/>
		<circle class="st0" cx="258.8" cy="174.3" r="19.4"/>
		<circle class="st0" cx="372.4" cy="20.3" r="19.4"/>
		<circle class="st0" cx="318.2" cy="114.4" r="19.4"/>
		<circle class="st0" cx="444.1" cy="83.2" r="19.4"/>
		<path class="st1" d="M83.4,129.3c-5.5-1.3-11.2-2.1-16.9-2.5"/>
		<path class="st1" d="M116.3,141.8c-3.5-1.8-7.1-3.5-10.7-5.1"/>
		<path class="st1" d="M150.7,163.7c-4.1-3.3-8.4-6.4-12.8-9.4"/>
		<path class="st1" d="M34.2,145.1c30.3,24.1,58.5,51.2,83.4,81c24.3,29.1,45.7,60.9,61.1,95.6c8.6,19.3,15.1,39.7,18.9,60.5
			c17.2-23.9,24.6-56.1,23.8-85.2c-1.5-43-22.5-85-52-115.9"/>
		<path class="st1" d="M170,378.3c9,1.5,19,2.5,28,4.5c18,34,19,74,25.5,112.2c0.1-0.5,0.2-0.9,0.2-1.4c-0.1,0.5-0.1,0.9-0.2,1.4
			c7.5-45.2,21.5-87.2,35.5-131.2c8-25,18-49,28-74c42-105,100-203,174.2-287.5"/>
		<path class="st1" d="M131.1,366.6c5.4,2.5,10.9,4.7,16.6,6.4"/>
		<path class="st1" d="M19.4,182.1c0.2,26.9,4.2,54,13.2,79.4c8.9,25.2,22.8,48.8,42.2,67.4c5.6,5.4,11.7,10.4,18.1,14.9
			c7.2,5.1,13.9,10.3,21.7,14.6"/>
		<path class="st1" d="M79.4,254.4c0,0,66.7,13.6,87.6,43.4"/>
		<path class="st1" d="M485.2,67.6c-0.3-9.3-1-18.6-2.2-27.8"/>
		<path class="st1" d="M483.1,107c0.8-6.1,1.4-12.2,1.8-18.3"/>
		<path class="st1" d="M472,152.6c2.9-7.9,5.2-15.9,7.2-24.1"/>
		<path class="st1" d="M372.4,20.3C344,32.8,318,47.8,298,72.8c-12,15-20,31-27,48c-22,62-13,129,8,188.9c8.3-4.2,0-0.1,0,0
			c17-7.9,35-15.9,53-23.9c53-26,101-61,130.6-112.2"/>
		<path class="st1" d="M335.2,156.7c1.6,15.3-1.1,30.9-7.8,44.8"/>
		<path class="st1" d="M331.2,138.7c0.9,2.5,1.6,5.1,2.3,7.8"/>
		<path class="st1" d="M318.2,114.4c3.7,4.5,6.6,9.6,9.1,14.8"/>
		<path class="st1" d="M444.1,83.2c0,0-47-0.5-62.5,24.1"/>
	</g>
</g>
</svg>
